    <svg
      xmlns="http://www.w3.org/2000/svg"
      width="460"
      height="488"
      viewBox="0 0 460 488"
      fill="none"
    >
      <g filter="url(#filter0_d_115_544)">
        <path
          fill-rule="evenodd"
          clip-rule="evenodd"
          d="M388.501 144.381C426.628 196.974 453.616 265.959 431.104 326.958C409.48 385.551 340.175 404.571 283.089 430.007C234.434 451.686 181.994 479.269 132.365 460.067C85.2304 441.83 70.421 386.012 49.9916 339.82C32.6709 300.657 24.8598 261.489 25.5958 218.656C26.7012 154.33 3.23668 73.3617 55.224 35.3338C107.285 -2.7477 178.03 42.3085 239.28 62.3492C295.377 80.704 353.883 96.627 388.501 144.381Z"
          fill="#C4C4C4"
        />
        <path
          fill-rule="evenodd"
          clip-rule="evenodd"
          d="M388.501 144.381C426.628 196.974 453.616 265.959 431.104 326.958C409.48 385.551 340.175 404.571 283.089 430.007C234.434 451.686 181.994 479.269 132.365 460.067C85.2304 441.83 70.421 386.012 49.9916 339.82C32.6709 300.657 24.8598 261.489 25.5958 218.656C26.7012 154.33 3.23668 73.3617 55.224 35.3338C107.285 -2.7477 178.03 42.3085 239.28 62.3492C295.377 80.704 353.883 96.627 388.501 144.381Z"
          stroke="#0238ED"
        />
      </g>
      <defs>
        <filter
          id="filter0_d_115_544"
          x="0.756165"
          y="0.0252686"
          width="459.051"
          height="487.012"
          filterUnits="userSpaceOnUse"
          color-interpolation-filters="sRGB"
        >
          <feFlood flood-opacity="0" result="BackgroundImageFix" />
          <feColorMatrix
            in="SourceAlpha"
            type="matrix"
            values="0 0 0 0 0 0 0 0 0 0 0 0 0 0 0 0 0 0 127 0"
            result="hardAlpha"
          />
          <feOffset />
          <feGaussianBlur stdDeviation="10" />
          <feComposite in2="hardAlpha" operator="out" />
          <feColorMatrix
            type="matrix"
            values="0 0 0 0 0 0 0 0 0 0 0 0 0 0 0 0 0 0 0.25 0"
          />
          <feBlend
            mode="normal"
            in2="BackgroundImageFix"
            result="effect1_dropShadow_115_544"
          />
          <feBlend
            mode="normal"
            in="SourceGraphic"
            in2="effect1_dropShadow_115_544"
            result="shape"
          />
        </filter>
      </defs>
    </svg>
