    <svg
      xmlns="http://www.w3.org/2000/svg"
      width="482"
      height="496"
      viewBox="0 0 482 496"
      fill="none"
    >
      <g filter="url(#filter0_d_115_545)">
        <path
          fill-rule="evenodd"
          clip-rule="evenodd"
          d="M240.594 28.4545C292.507 31.0424 347.083 25.5674 387.637 58.076C432.059 93.6862 462.308 148.188 460.956 205.102C459.627 261.045 416.345 302.07 380.813 345.305C339.053 396.119 305.686 463.764 240.594 473.24C170.51 483.443 96.9197 448.313 52.5887 393.086C11.3842 341.754 20.5737 270.748 25.3565 205.102C29.6574 146.069 32.3649 80.1984 78.1207 42.6463C121.805 6.79438 184.149 25.6407 240.594 28.4545Z"
          fill="#C4C4C4"
        />
        <path
          fill-rule="evenodd"
          clip-rule="evenodd"
          d="M240.594 28.4545C292.507 31.0424 347.083 25.5674 387.637 58.076C432.059 93.6862 462.308 148.188 460.956 205.102C459.627 261.045 416.345 302.07 380.813 345.305C339.053 396.119 305.686 463.764 240.594 473.24C170.51 483.443 96.9197 448.313 52.5887 393.086C11.3842 341.754 20.5737 270.748 25.3565 205.102C29.6574 146.069 32.3649 80.1984 78.1207 42.6463C121.805 6.79438 184.149 25.6407 240.594 28.4545Z"
          stroke="#0238ED"
        />
      </g>
      <defs>
        <filter
          id="filter0_d_115_545"
          x="0.500122"
          y="0.5"
          width="481"
          height="495"
          filterUnits="userSpaceOnUse"
          color-interpolation-filters="sRGB"
        >
          <feFlood flood-opacity="0" result="BackgroundImageFix" />
          <feColorMatrix
            in="SourceAlpha"
            type="matrix"
            values="0 0 0 0 0 0 0 0 0 0 0 0 0 0 0 0 0 0 127 0"
            result="hardAlpha"
          />
          <feOffset />
          <feGaussianBlur stdDeviation="10" />
          <feComposite in2="hardAlpha" operator="out" />
          <feColorMatrix
            type="matrix"
            values="0 0 0 0 0 0 0 0 0 0 0 0 0 0 0 0 0 0 0.25 0"
          />
          <feBlend
            mode="normal"
            in2="BackgroundImageFix"
            result="effect1_dropShadow_115_545"
          />
          <feBlend
            mode="normal"
            in="SourceGraphic"
            in2="effect1_dropShadow_115_545"
            result="shape"
          />
        </filter>
      </defs>
    </svg>

