
    <svg
      xmlns="http://www.w3.org/2000/svg"
      width="505"
      height="480"
      viewBox="0 0 505 480"
      fill="none"
    >
      <g filter="url(#filter0_d_115_543)">
        <path
          fill-rule="evenodd"
          clip-rule="evenodd"
          d="M231.87 25.293C296.679 10.3294 367.29 35.7582 415.321 81.7551C464.193 128.556 491.192 198.071 482.33 265.143C474.233 326.422 421.487 368.004 372.512 405.737C331.32 437.474 283.511 464.273 231.87 458.112C184.404 452.449 156.479 408.024 121.219 375.756C83.0632 340.838 21.9184 316.847 21.0098 265.143C20.0988 213.307 83.0257 189.517 117.262 150.574C156.11 106.385 174.531 38.532 231.87 25.293Z"
          fill="#C4C4C4"
        />
        <path
          fill-rule="evenodd"
          clip-rule="evenodd"
          d="M231.87 25.293C296.679 10.3294 367.29 35.7582 415.321 81.7551C464.193 128.556 491.192 198.071 482.33 265.143C474.233 326.422 421.487 368.004 372.512 405.737C331.32 437.474 283.511 464.273 231.87 458.112C184.404 452.449 156.479 408.024 121.219 375.756C83.0632 340.838 21.9184 316.847 21.0098 265.143C20.0988 213.307 83.0257 189.517 117.262 150.574C156.11 106.385 174.531 38.532 231.87 25.293Z"
          stroke="#0238ED"
        />
      </g>
      <defs>
        <filter
          id="filter0_d_115_543"
          x="0.5"
          y="0.499756"
          width="504"
          height="479"
          filterUnits="userSpaceOnUse"
          color-interpolation-filters="sRGB"
        >
          <feFlood flood-opacity="0" result="BackgroundImageFix" />
          <feColorMatrix
            in="SourceAlpha"
            type="matrix"
            values="0 0 0 0 0 0 0 0 0 0 0 0 0 0 0 0 0 0 127 0"
            result="hardAlpha"
          />
          <feOffset />
          <feGaussianBlur stdDeviation="10" />
          <feComposite in2="hardAlpha" operator="out" />
          <feColorMatrix
            type="matrix"
            values="0 0 0 0 0 0 0 0 0 0 0 0 0 0 0 0 0 0 0.25 0"
          />
          <feBlend
            mode="normal"
            in2="BackgroundImageFix"
            result="effect1_dropShadow_115_543"
          />
          <feBlend
            mode="normal"
            in="SourceGraphic"
            in2="effect1_dropShadow_115_543"
            result="shape"
          />
        </filter>
      </defs>
    </svg>

